<svg version="1.1" id="Layer_1" xmlns="http://www.w3.org/2000/svg" xmlns:xlink="http://www.w3.org/1999/xlink" x="0px" y="0px"
	 width="100%" viewBox="0 0 2161 336" enable-background="new 0 0 2161 336" xml:space="preserve">
<path fill="#FFFFFF" opacity="1.000000" stroke="none" 
	d="
M2162.000000,312.000000 
	C2162.000000,320.331512 2162.000000,328.663055 2162.000000,336.990784 
	C1441.666626,336.987000 721.333313,336.987000 1.000000,336.980499 
	C1.000000,334.974457 1.000000,332.974884 1.403282,330.627441 
	C12.806916,330.279572 23.807268,330.279572 35.268723,330.279572 
	C35.268723,272.084686 35.268723,213.796387 35.268723,154.888245 
	C65.572205,197.022079 95.423286,238.526886 125.429504,280.247406 
	C155.561050,238.237717 185.354431,196.699493 215.147797,155.161285 
	C215.463165,155.296432 215.778534,155.431580 216.093903,155.566727 
	C216.093903,213.940216 216.093903,272.313690 216.093903,330.759888 
	C227.217072,330.759888 237.953995,330.759888 248.758118,330.759888 
	C248.758118,237.841263 248.758118,145.164444 248.758118,51.016640 
	C245.965698,54.921383 243.931320,57.733257 241.930573,60.568863 
	C221.977188,88.848335 202.043167,117.141487 182.075439,145.410828 
	C166.747665,167.111145 151.379150,188.782684 136.029327,210.467453 
	C132.748154,215.102783 129.469528,219.739929 125.907188,224.775635 
	C85.466293,167.415878 45.554577,110.806694 5.642866,54.197514 
	C5.095032,54.292271 4.547199,54.387024 3.999366,54.481777 
	C3.999366,64.512321 4.096347,74.543991 3.980009,84.573189 
	C3.702572,108.490448 3.288538,132.406097 2.996041,156.323212 
	C2.628160,186.404297 2.215571,216.485489 2.029785,246.567932 
	C1.869256,272.560699 2.015366,298.555328 1.957626,324.548981 
	C1.954329,326.033356 1.333453,327.516357 1.000001,329.000000 
	C1.000000,219.697418 1.000000,110.394829 1.000000,1.000000 
	C388.693512,1.000000 776.387024,1.000000 1164.399170,1.337396 
	C1152.728394,4.409135 1145.064453,18.936308 1149.341797,31.621172 
	C1154.250366,46.178173 1168.142334,50.815166 1180.055298,45.542831 
	C1193.544922,39.572609 1197.933838,19.797710 1186.825928,7.850991 
	C1184.013916,4.826632 1179.650513,3.244745 1176.000000,1.000015 
	C1228.026855,1.000000 1280.053711,1.000000 1332.405029,1.340009 
	C1323.957764,4.328102 1318.955933,10.118514 1316.806763,19.111176 
	C1314.577271,28.439375 1317.263916,36.175995 1323.905640,42.156609 
	C1330.463257,48.061607 1338.602539,49.646332 1347.038940,45.958378 
	C1356.197388,41.954834 1360.846924,34.519512 1360.895020,24.752296 
	C1360.952515,13.058401 1354.630737,5.364773 1344.000000,1.000000 
	C1616.561646,1.000000 1889.123413,1.000000 2162.000000,1.000000 
	C2162.000000,91.026619 2162.000000,181.053604 2161.595703,271.365356 
	C2161.127686,247.825943 2161.069580,224.001801 2160.987061,200.177719 
	C2160.981445,198.528214 2161.012939,196.829895 2160.655518,195.237717 
	C2156.898926,178.499710 2149.253662,164.118164 2136.197510,152.541443 
	C2123.551270,141.328354 2108.797119,134.830612 2092.370117,133.265472 
	C2079.926758,132.079865 2067.443115,132.973450 2054.964844,136.672424 
	C2038.037842,141.690277 2024.121948,150.903351 2013.557861,164.238281 
	C1998.506714,183.237045 1994.266602,205.582764 1997.971924,229.485443 
	C2000.997803,249.006592 2009.664673,265.269470 2024.694702,278.311249 
	C2038.127808,289.967316 2053.916260,296.244354 2071.164795,297.736084 
	C2085.906250,299.011017 2100.846191,297.991943 2115.846680,297.987549 
	C2115.846680,286.873718 2115.846680,277.250580 2115.846680,267.067230 
	C2113.211914,266.713806 2110.548828,266.070251 2107.880371,266.047394 
	C2095.216309,265.938812 2082.548096,266.167297 2069.886475,265.956696 
	C2054.540039,265.701385 2043.676880,257.472015 2035.773560,245.162735 
	C2029.181641,234.895813 2026.979736,223.396637 2027.942017,211.152100 
	C2029.405273,192.535202 2035.908691,177.214645 2053.011963,167.425278 
	C2070.085205,157.653061 2087.567383,157.116409 2104.257080,166.362808 
	C2122.010010,176.198303 2130.754639,192.680237 2130.929688,213.044632 
	C2131.197021,244.205109 2131.000000,275.369598 2131.000000,306.532379 
	C2131.000000,308.296295 2131.000000,310.060181 2131.000000,312.000000 
	C2141.709961,312.000000 2151.854980,312.000000 2162.000000,312.000000 
M1730.431030,154.077911 
	C1730.234375,154.372421 1730.037720,154.666946 1729.158569,155.261536 
	C1728.553345,156.911118 1728.050781,158.607300 1727.326294,160.202774 
	C1722.293457,171.287537 1717.115356,182.307343 1712.170410,193.430954 
	C1701.372925,217.720291 1690.693848,242.062302 1679.943115,266.372589 
	C1678.772461,269.019562 1677.450439,271.599487 1675.821045,274.998047 
	C1668.537231,259.186127 1661.749390,244.319565 1654.841309,229.509140 
	C1651.374146,222.075958 1647.578735,214.795746 1644.122925,207.357559 
	C1636.429932,190.799347 1628.896851,174.166687 1621.151489,157.633240 
	C1620.605591,156.467834 1618.873169,155.141052 1617.666504,155.115707 
	C1607.942261,154.911331 1598.211914,155.001205 1588.060669,155.001205 
	C1591.194214,162.071701 1594.060547,168.673691 1597.034912,175.226685 
	C1608.677368,200.877304 1620.395020,226.493851 1632.004395,252.159348 
	C1641.115112,272.300476 1650.080566,292.507355 1659.228271,312.631561 
	C1659.703613,313.677368 1661.270874,314.876007 1662.350586,314.896271 
	C1671.811890,315.073578 1681.277832,314.998840 1690.764282,314.998840 
	C1693.958984,307.673431 1696.956909,300.582245 1700.128784,293.569641 
	C1707.919189,276.345886 1715.854614,259.187592 1723.611206,241.948761 
	C1733.470459,220.037079 1743.250854,198.089676 1752.978760,176.119385 
	C1756.073242,169.130585 1758.891846,162.019531 1761.927856,154.444839 
	C1761.629028,154.338394 1761.330322,154.231964 1760.104248,153.953262 
	C1750.393555,154.010681 1740.682739,154.068115 1730.431030,154.077911 
M539.014160,129.845108 
	C539.068054,131.211578 539.122009,132.578033 539.014526,134.876541 
	C539.014526,200.482025 539.014526,266.087524 539.014526,331.743622 
	C550.557251,331.743622 561.627869,331.743622 573.763062,331.743622 
	C573.763062,293.452850 573.763062,255.420380 573.763062,216.471466 
	C585.805115,230.894028 596.917725,244.272949 608.110352,257.584595 
	C615.773010,266.697937 623.603516,275.670105 631.258118,284.790131 
	C642.972412,298.747253 654.564331,312.807281 666.309998,326.737793 
	C667.735718,328.428711 669.759888,330.759613 671.559692,330.807587 
	C684.628662,331.156158 697.711121,330.994904 712.132446,330.994904 
	C679.508667,291.206604 647.689270,252.399292 615.927612,213.662506 
	C617.062378,212.594742 617.265381,212.233917 617.535339,212.173874 
	C635.815491,208.109146 652.427856,200.836700 665.523499,186.956970 
	C683.521973,167.880844 687.874878,145.492737 681.179810,120.604660 
	C676.568665,103.463448 665.647766,90.548683 651.728943,80.469574 
	C639.698303,71.757759 626.150574,66.511971 610.638062,66.872284 
	C588.817322,67.379112 566.975952,67.000435 545.143433,67.000443 
	C543.533569,67.000443 541.923706,67.000443 539.973389,67.000443 
	C539.973389,79.632446 539.973389,91.764816 539.454346,104.045273 
	C539.344055,104.352638 539.233765,104.660004 538.952881,105.895088 
	C539.009766,113.606682 539.066650,121.318268 539.014160,129.845108 
M804.026245,334.622894 
	C810.238953,335.081909 816.449585,335.872375 822.664978,335.912415 
	C829.738953,335.958038 836.829102,335.493164 843.891113,334.967163 
	C858.345337,333.890625 871.941406,329.528198 884.738647,322.969482 
	C896.620667,316.879852 906.747498,308.450043 914.813538,297.687378 
	C924.875000,284.262085 930.729553,269.025269 930.839783,252.416611 
	C931.244812,191.430511 931.002625,130.440094 930.991089,69.451309 
	C930.990784,68.020706 930.837708,66.590134 930.765564,65.328354 
	C918.959961,65.328354 907.557007,65.328354 896.099915,65.328354 
	C896.056396,66.307854 896.001892,66.962524 896.001770,67.617210 
	C895.994019,119.107727 895.990479,170.598251 895.987610,222.088760 
	C895.987549,222.921768 896.009094,223.754776 896.007263,224.587769 
	C895.989685,232.758286 897.051514,241.109146 895.726074,249.062057 
	C892.897827,266.033356 885.414795,280.840454 871.622070,291.887390 
	C854.871704,305.303192 835.897034,309.831024 815.018066,305.449677 
	C800.228760,302.346191 788.135498,294.224121 778.422974,282.826233 
	C769.786133,272.690643 764.872925,261.094788 764.917908,247.348236 
	C765.110840,188.359711 765.000122,129.370193 765.000061,70.381035 
	C765.000061,68.629616 765.000061,66.878189 765.000061,65.166260 
	C753.683594,65.166260 743.054626,65.166260 732.067810,65.166260 
	C731.702576,68.649117 731.047363,72.004807 731.043823,75.361183 
	C730.981750,134.017014 730.942017,192.673050 731.087463,251.328583 
	C731.102295,257.303009 731.783813,263.398224 733.094666,269.226227 
	C739.500793,297.707794 756.809082,317.279816 783.397339,328.612274 
	C789.677002,331.288818 796.670349,332.290771 804.026245,334.622894 
M364.500000,256.000031 
	C394.153503,256.000031 423.807007,256.000031 453.374451,256.000031 
	C464.020721,281.104218 474.578918,306.000702 485.101501,330.813171 
	C496.843231,330.813171 508.289032,330.813171 520.369385,330.813171 
	C513.475647,315.739319 506.695129,301.086975 500.062622,286.367950 
	C490.981110,266.213928 482.063721,245.985962 472.980774,225.832581 
	C463.031525,203.757095 452.988007,181.724030 442.958588,159.684769 
	C436.450958,145.384445 429.830322,131.135269 423.375977,116.811058 
	C414.114868,96.257774 404.959167,75.656975 395.597870,54.717155 
	C394.892517,55.751839 394.342285,56.364334 394.007965,57.077972 
	C387.139221,71.739967 380.309570,86.420288 373.442566,101.083115 
	C363.438721,122.443954 353.401520,143.789185 343.397675,165.150055 
	C336.663452,179.529404 329.976288,193.930801 323.243011,208.310593 
	C313.237366,229.678955 303.212341,251.038254 293.190186,272.398895 
	C286.778290,286.064728 280.349854,299.722809 273.942871,313.390961 
	C271.258575,319.117432 268.610657,324.860931 265.758514,331.000732 
	C276.408569,331.000732 286.404144,331.126923 296.389282,330.860870 
	C297.840424,330.822205 299.918030,329.218628 300.565155,327.813782 
	C311.561798,303.940430 322.378113,279.984039 333.255066,256.000031 
	C343.514954,256.000031 353.507477,256.000031 364.500000,256.000031 
M1236.000000,285.500000 
	C1236.000000,300.918701 1236.000000,316.337402 1236.000000,331.609802 
	C1247.410034,331.609802 1258.132202,331.609802 1269.122314,331.609802 
	C1269.122314,307.261444 1269.122314,283.302063 1269.122314,259.212494 
	C1274.278564,258.109283 1279.195679,257.066589 1284.108521,256.004456 
	C1300.368530,252.489136 1315.594116,246.499496 1328.539795,235.866806 
	C1348.625977,219.369354 1357.378540,197.174118 1357.843872,171.891006 
	C1358.472168,137.750519 1358.000000,103.589767 1358.000000,69.437714 
	C1358.000000,67.687561 1358.000000,65.937401 1358.000000,64.240112 
	C1345.990234,64.240112 1334.721558,64.240112 1323.147095,64.240112 
	C1323.091309,65.421638 1322.994873,66.381355 1323.008301,67.339523 
	C1323.331421,90.258049 1323.967163,113.177460 1323.886353,136.094391 
	C1323.838013,149.780090 1322.834961,163.472321 1321.966309,177.142899 
	C1320.665283,197.618149 1310.107788,212.013306 1291.988159,220.959351 
	C1274.588135,229.550049 1256.140869,231.391434 1237.233887,227.870880 
	C1225.055420,225.603226 1213.934448,220.465591 1204.711670,212.093796 
	C1193.447388,201.868820 1188.236572,188.544434 1188.101318,173.613037 
	C1187.784546,138.630875 1188.000000,103.643898 1188.000000,68.658875 
	C1188.000000,66.887375 1188.000000,65.115875 1188.000000,63.340206 
	C1177.358643,63.340206 1167.304565,63.340206 1157.491211,63.340206 
	C1156.974121,76.257347 1156.212158,88.820839 1156.031494,101.392693 
	C1155.787231,118.381683 1155.742188,135.382034 1156.081421,152.368149 
	C1156.334839,165.061279 1157.025269,177.765060 1158.078491,190.417694 
	C1159.242065,204.395462 1165.646118,216.264328 1174.997559,226.393631 
	C1191.449951,244.214523 1211.923462,254.967010 1236.000000,259.592896 
	C1236.000000,267.885559 1236.000000,276.192780 1236.000000,285.500000 
M1433.393433,189.062302 
	C1443.591919,193.710419 1453.763184,198.419479 1463.995361,202.992294 
	C1479.100342,209.742813 1494.100586,216.633759 1505.598145,229.115784 
	C1518.694458,243.333481 1522.242554,259.721405 1513.570190,276.464996 
	C1501.274170,300.204437 1474.602051,311.385406 1449.111572,305.815735 
	C1435.012207,302.735077 1422.930298,295.401733 1414.743652,283.069122 
	C1409.713135,275.490692 1405.396240,267.438477 1400.775391,259.626953 
	C1392.562012,261.957184 1383.603271,264.391327 1374.745605,267.150208 
	C1373.659058,267.488678 1372.177368,269.834381 1372.454224,270.796875 
	C1379.674194,295.903748 1394.434204,315.092590 1417.917114,326.984833 
	C1436.907959,336.602234 1457.260132,338.127167 1477.867798,334.814667 
	C1492.316162,332.492218 1505.628662,326.446808 1516.656982,316.696442 
	C1536.873901,298.822052 1547.040161,276.232117 1547.064941,249.055054 
	C1547.078857,233.739273 1541.064453,221.154724 1530.803833,210.355728 
	C1521.665649,200.738297 1510.430664,193.903198 1498.708862,188.021179 
	C1479.199463,178.231171 1459.421265,168.977844 1439.851318,159.306381 
	C1431.626099,155.241486 1424.967163,149.015701 1420.208008,141.297256 
	C1413.506348,130.428772 1416.407715,114.744362 1427.222900,103.443550 
	C1442.001709,88.000847 1464.979980,84.806679 1485.552368,94.309906 
	C1497.195679,99.688339 1505.822510,108.609482 1511.844727,120.302277 
	C1520.541748,113.182304 1529.026978,106.235779 1538.159546,98.759239 
	C1531.476807,92.398155 1525.664062,86.395020 1519.353027,80.971718 
	C1510.602661,73.452484 1500.278809,68.523331 1489.365356,65.066689 
	C1475.630493,60.716419 1461.573975,59.865288 1447.250000,61.937424 
	C1432.216675,64.112144 1418.829590,70.116417 1408.167847,80.575783 
	C1392.413696,96.030876 1385.324585,115.183006 1386.889648,137.540176 
	C1387.708374,149.235931 1392.941162,158.609726 1400.462036,166.847748 
	C1409.415161,176.654663 1421.157715,182.692612 1433.393433,189.062302 
M985.534058,171.021851 
	C992.430054,175.697220 998.925598,181.165009 1006.300598,184.892685 
	C1025.027100,194.357864 1044.205200,202.924683 1063.087524,212.087891 
	C1073.701538,217.238632 1083.199463,223.971405 1090.212891,233.722260 
	C1095.850342,241.560028 1099.491943,250.419846 1098.802368,259.948151 
	C1097.685425,275.379578 1089.573120,287.216064 1076.940063,295.975647 
	C1062.644165,305.888214 1046.871582,309.306091 1029.846558,305.931641 
	C1018.147217,303.612793 1008.024170,297.712463 999.907593,289.175385 
	C991.767883,280.614075 985.952393,270.357117 982.509399,259.080475 
	C973.672974,261.774536 965.131958,264.468506 956.530579,266.953461 
	C953.416687,267.852997 952.114441,268.980286 953.699036,272.415802 
	C956.834412,279.213562 959.098022,286.455536 962.652222,293.009460 
	C970.448242,307.385559 982.118103,318.108307 996.462830,325.792053 
	C1017.338745,336.974243 1039.646484,338.903503 1062.356812,333.841614 
	C1083.304077,329.172607 1100.302734,317.790710 1112.568115,299.891754 
	C1120.022949,289.012787 1124.467773,276.835571 1126.896118,263.991608 
	C1129.365967,250.928360 1128.589478,237.974716 1122.400269,225.955994 
	C1114.125366,209.887146 1100.582153,199.096100 1084.875000,191.059326 
	C1062.996704,179.865005 1040.741089,169.408447 1018.849976,158.238449 
	C1010.061951,153.754333 1002.686462,147.170364 999.097900,137.663422 
	C994.284119,124.910629 998.792603,113.727692 1007.296570,104.422043 
	C1021.503723,88.875725 1039.489746,85.815208 1059.053345,91.655800 
	C1074.081299,96.142342 1085.099121,105.973488 1092.495605,120.229912 
	C1101.208496,113.170547 1109.604248,106.368141 1118.636841,99.049713 
	C1112.052856,92.544754 1106.353027,85.353951 1099.195923,80.178802 
	C1085.808838,70.498978 1071.039551,63.815063 1054.142822,61.773663 
	C1036.979126,59.700016 1020.613770,61.418446 1005.258728,69.064415 
	C988.651184,77.333992 977.151917,90.485619 971.263977,108.321182 
	C967.060852,121.053322 965.154358,133.935928 969.078552,147.025543 
	C971.901245,156.440781 977.757263,164.013092 985.534058,171.021851 
M1861.016113,142.479645 
	C1836.240112,155.085953 1822.558960,174.431198 1822.908569,203.079605 
	C1823.305176,235.573135 1823.038330,268.075317 1822.951050,300.573456 
	C1822.940308,304.585022 1822.260010,308.594818 1821.876587,312.750885 
	C1832.866089,312.750885 1843.273071,312.750885 1854.001343,312.750885 
	C1854.001343,310.706085 1854.001343,308.906372 1854.001343,307.106689 
	C1854.001343,271.441833 1854.168213,235.775681 1853.894531,200.112915 
	C1853.817627,190.073151 1857.774658,181.910934 1864.414673,175.350998 
	C1874.710205,165.179962 1887.843506,160.237747 1902.182983,160.159058 
	C1918.057861,160.071960 1931.915649,166.143280 1941.880859,178.673096 
	C1948.719360,187.271500 1953.448242,196.811005 1953.215698,208.816986 
	C1952.586548,241.303162 1953.000000,273.809540 1953.000000,306.307892 
	C1953.000000,308.089264 1953.000000,309.870605 1953.000000,311.753174 
	C1962.537598,311.753174 1971.606323,311.753174 1981.000854,311.753174 
	C1981.000854,309.878143 1981.000732,308.245850 1981.000732,306.613525 
	C1981.000732,274.781799 1981.049683,242.949921 1980.955811,211.118469 
	C1980.938843,205.368469 1980.610474,199.588303 1979.948853,193.877319 
	C1978.227661,179.019669 1972.014038,166.061554 1961.737549,155.337769 
	C1948.399780,141.419495 1931.310181,134.785553 1912.522583,133.158386 
	C1894.950317,131.636490 1877.713379,133.961487 1861.016113,142.479645 
M1805.000000,293.499878 
	C1805.000000,247.084274 1805.000000,200.668655 1805.000000,154.293137 
	C1793.030884,154.293137 1781.630737,154.293137 1770.287231,154.293137 
	C1770.287231,207.975861 1770.287231,261.364502 1770.287231,314.712524 
	C1781.978149,314.712524 1793.379517,314.712524 1805.000000,314.712524 
	C1805.000000,307.784119 1805.000000,301.141968 1805.000000,293.499878 
M1806.998901,106.624123 
	C1806.666260,105.384392 1806.183960,104.163597 1806.024414,102.901993 
	C1804.566040,91.367004 1791.315796,84.220055 1780.646973,88.847122 
	C1770.905396,93.072136 1767.352417,101.650497 1769.159668,111.767334 
	C1771.261108,123.531143 1782.722656,129.002655 1792.373657,126.296242 
	C1802.213135,123.536949 1805.593384,116.442917 1806.998901,106.624123 
z"/>
<path fill="#231F20" opacity="1.000000" stroke="none" 
	d="
M1.000001,329.250000 
	C1.333453,327.516357 1.954329,326.033356 1.957626,324.548981 
	C2.015366,298.555328 1.869256,272.560699 2.029785,246.567932 
	C2.215571,216.485489 2.628160,186.404297 2.996041,156.323212 
	C3.288538,132.406097 3.702572,108.490448 3.980009,84.573189 
	C4.096347,74.543991 3.999366,64.512321 3.999366,54.481777 
	C4.547199,54.387024 5.095032,54.292271 5.642866,54.197514 
	C45.554577,110.806694 85.466293,167.415878 125.907188,224.775635 
	C129.469528,219.739929 132.748154,215.102783 136.029327,210.467453 
	C151.379150,188.782684 166.747665,167.111145 182.075439,145.410828 
	C202.043167,117.141487 221.977188,88.848335 241.930573,60.568863 
	C243.931320,57.733257 245.965698,54.921383 248.758118,51.016640 
	C248.758118,145.164444 248.758118,237.841263 248.758118,330.759888 
	C237.953995,330.759888 227.217072,330.759888 216.093903,330.759888 
	C216.093903,272.313690 216.093903,213.940216 216.093903,155.566727 
	C215.778534,155.431580 215.463165,155.296432 215.147797,155.161285 
	C185.354431,196.699493 155.561050,238.237717 125.429504,280.247406 
	C95.423286,238.526886 65.572205,197.022079 35.268723,154.888245 
	C35.268723,213.796387 35.268723,272.084686 35.268723,330.279572 
	C23.807268,330.279572 12.806916,330.279572 1.403282,330.139771 
	C1.000000,330.000000 1.000000,329.500000 1.000001,329.250000 
z"/>
<path fill="#231F20" opacity="1.000000" stroke="none" 
	d="
M2162.000000,311.531342 
	C2151.854980,312.000000 2141.709961,312.000000 2131.000000,312.000000 
	C2131.000000,310.060181 2131.000000,308.296295 2131.000000,306.532379 
	C2131.000000,275.369598 2131.197021,244.205109 2130.929688,213.044632 
	C2130.754639,192.680237 2122.010010,176.198303 2104.257080,166.362808 
	C2087.567383,157.116409 2070.085205,157.653061 2053.011963,167.425278 
	C2035.908691,177.214645 2029.405273,192.535202 2027.942017,211.152100 
	C2026.979736,223.396637 2029.181641,234.895813 2035.773560,245.162735 
	C2043.676880,257.472015 2054.540039,265.701385 2069.886475,265.956696 
	C2082.548096,266.167297 2095.216309,265.938812 2107.880371,266.047394 
	C2110.548828,266.070251 2113.211914,266.713806 2115.846680,267.067230 
	C2115.846680,277.250580 2115.846680,286.873718 2115.846680,297.987549 
	C2100.846191,297.991943 2085.906250,299.011017 2071.164795,297.736084 
	C2053.916260,296.244354 2038.127808,289.967316 2024.694702,278.311249 
	C2009.664673,265.269470 2000.997803,249.006592 1997.971924,229.485443 
	C1994.266602,205.582764 1998.506714,183.237045 2013.557861,164.238281 
	C2024.121948,150.903351 2038.037842,141.690277 2054.964844,136.672424 
	C2067.443115,132.973450 2079.926758,132.079865 2092.370117,133.265472 
	C2108.797119,134.830612 2123.551270,141.328354 2136.197510,152.541443 
	C2149.253662,164.118164 2156.898926,178.499710 2160.655518,195.237717 
	C2161.012939,196.829895 2160.981445,198.528214 2160.987061,200.177719 
	C2161.069580,224.001801 2161.127686,247.825943 2161.595703,271.825043 
	C2162.000000,285.020905 2162.000000,298.041779 2162.000000,311.531342 
z"/>
<path fill="#10AEAF" opacity="1.000000" stroke="none" 
	d="
M1343.541992,1.000000 
	C1354.630737,5.364773 1360.952515,13.058401 1360.895020,24.752296 
	C1360.846924,34.519512 1356.197388,41.954834 1347.038940,45.958378 
	C1338.602539,49.646332 1330.463257,48.061607 1323.905640,42.156609 
	C1317.263916,36.175995 1314.577271,28.439375 1316.806763,19.111176 
	C1318.955933,10.118514 1323.957764,4.328102 1332.864746,1.340009 
	C1336.361328,1.000000 1339.722534,1.000000 1343.541992,1.000000 
z"/>
<path fill="#10AEAF" opacity="1.000000" stroke="none" 
	d="
M1175.541992,1.000015 
	C1179.650513,3.244745 1184.013916,4.826632 1186.825928,7.850991 
	C1197.933838,19.797710 1193.544922,39.572609 1180.055298,45.542831 
	C1168.142334,50.815166 1154.250366,46.178173 1149.341797,31.621172 
	C1145.064453,18.936308 1152.728394,4.409135 1164.858887,1.337396 
	C1168.361328,1.000000 1171.722534,1.000000 1175.541992,1.000015 
z"/>
<path fill="#231F20" opacity="1.000000" stroke="none" 
	d="
M539.973389,103.897179 
	C539.973389,91.764816 539.973389,79.632446 539.973389,67.000443 
	C541.923706,67.000443 543.533569,67.000443 545.143433,67.000443 
	C566.975952,67.000435 588.817322,67.379112 610.638062,66.872284 
	C626.150574,66.511971 639.698303,71.757759 651.728943,80.469574 
	C665.647766,90.548683 676.568665,103.463448 681.179810,120.604660 
	C687.874878,145.492737 683.521973,167.880844 665.523499,186.956970 
	C652.427856,200.836700 635.815491,208.109146 617.535339,212.173874 
	C617.265381,212.233917 617.062378,212.594742 615.927612,213.662506 
	C647.689270,252.399292 679.508667,291.206604 712.132446,330.994904 
	C697.711121,330.994904 684.628662,331.156158 671.559692,330.807587 
	C669.759888,330.759613 667.735718,328.428711 666.309998,326.737793 
	C654.564331,312.807281 642.972412,298.747253 631.258118,284.790131 
	C623.603516,275.670105 615.773010,266.697937 608.110352,257.584595 
	C596.917725,244.272949 585.805115,230.894028 573.763062,216.471466 
	C573.763062,255.420380 573.763062,293.452850 573.763062,331.743622 
	C561.627869,331.743622 550.557251,331.743622 539.014526,331.743622 
	C539.014526,266.087524 539.014526,200.482025 539.330078,134.166473 
	C539.471558,131.980881 539.297546,130.505371 539.123535,129.029861 
	C539.066650,121.318268 539.009766,113.606682 539.248047,105.319092 
	C539.736084,104.486320 539.879517,104.204346 539.973389,103.897179 
M643.489990,167.967300 
	C646.332520,161.059692 650.067566,154.374023 651.850891,147.203003 
	C657.299377,125.292915 643.815063,105.787102 623.749023,98.796219 
	C613.518860,95.232094 603.337158,94.947250 592.892212,94.993706 
	C584.975708,95.028915 577.058838,95.000679 569.733276,95.000679 
	C569.733276,126.324188 569.733276,156.986053 569.733276,188.000198 
	C583.246521,188.000198 596.030151,187.907654 608.811829,188.024155 
	C624.039368,188.162949 634.530579,180.161163 643.489990,167.967300 
z"/>
<path fill="#231F20" opacity="1.000000" stroke="none" 
	d="
M803.680786,334.342987 
	C796.670349,332.290771 789.677002,331.288818 783.397339,328.612274 
	C756.809082,317.279816 739.500793,297.707794 733.094666,269.226227 
	C731.783813,263.398224 731.102295,257.303009 731.087463,251.328583 
	C730.942017,192.673050 730.981750,134.017014 731.043823,75.361183 
	C731.047363,72.004807 731.702576,68.649117 732.067810,65.166260 
	C743.054626,65.166260 753.683594,65.166260 765.000061,65.166260 
	C765.000061,66.878189 765.000061,68.629616 765.000061,70.381035 
	C765.000122,129.370193 765.110840,188.359711 764.917908,247.348236 
	C764.872925,261.094788 769.786133,272.690643 778.422974,282.826233 
	C788.135498,294.224121 800.228760,302.346191 815.018066,305.449677 
	C835.897034,309.831024 854.871704,305.303192 871.622070,291.887390 
	C885.414795,280.840454 892.897827,266.033356 895.726074,249.062057 
	C897.051514,241.109146 895.989685,232.758286 896.007263,224.587769 
	C896.009094,223.754776 895.987549,222.921768 895.987610,222.088760 
	C895.990479,170.598251 895.994019,119.107727 896.001770,67.617210 
	C896.001892,66.962524 896.056396,66.307854 896.099915,65.328354 
	C907.557007,65.328354 918.959961,65.328354 930.765564,65.328354 
	C930.837708,66.590134 930.990784,68.020706 930.991089,69.451309 
	C931.002625,130.440094 931.244812,191.430511 930.839783,252.416611 
	C930.729553,269.025269 924.875000,284.262085 914.813538,297.687378 
	C906.747498,308.450043 896.620667,316.879852 884.738647,322.969482 
	C871.941406,329.528198 858.345337,333.890625 843.891113,334.967163 
	C836.829102,335.493164 829.738953,335.958038 822.664978,335.912415 
	C816.449585,335.872375 810.238953,335.081909 803.680786,334.342987 
z"/>
<path fill="#231F20" opacity="1.000000" stroke="none" 
	d="
M364.000000,256.000031 
	C353.507477,256.000031 343.514954,256.000031 333.255066,256.000031 
	C322.378113,279.984039 311.561798,303.940430 300.565155,327.813782 
	C299.918030,329.218628 297.840424,330.822205 296.389282,330.860870 
	C286.404144,331.126923 276.408569,331.000732 265.758514,331.000732 
	C268.610657,324.860931 271.258575,319.117432 273.942871,313.390961 
	C280.349854,299.722809 286.778290,286.064728 293.190186,272.398895 
	C303.212341,251.038254 313.237366,229.678955 323.243011,208.310593 
	C329.976288,193.930801 336.663452,179.529404 343.397675,165.150055 
	C353.401520,143.789185 363.438721,122.443954 373.442566,101.083115 
	C380.309570,86.420288 387.139221,71.739967 394.007965,57.077972 
	C394.342285,56.364334 394.892517,55.751839 395.597870,54.717155 
	C404.959167,75.656975 414.114868,96.257774 423.375977,116.811058 
	C429.830322,131.135269 436.450958,145.384445 442.958588,159.684769 
	C452.988007,181.724030 463.031525,203.757095 472.980774,225.832581 
	C482.063721,245.985962 490.981110,266.213928 500.062622,286.367950 
	C506.695129,301.086975 513.475647,315.739319 520.369385,330.813171 
	C508.289032,330.813171 496.843231,330.813171 485.101501,330.813171 
	C474.578918,306.000702 464.020721,281.104218 453.374451,256.000031 
	C423.807007,256.000031 394.153503,256.000031 364.000000,256.000031 
M396.504211,231.000473 
	C410.525604,231.000473 424.547028,231.000473 439.430725,231.000473 
	C423.703491,195.086914 408.576843,160.544769 392.949463,124.859238 
	C376.951843,160.365448 361.372192,194.943939 345.126617,231.000488 
	C362.714874,231.000488 379.110687,231.000488 396.504211,231.000473 
z"/>
<path fill="#10AEAF" opacity="1.000000" stroke="none" 
	d="
M1236.000000,285.000000 
	C1236.000000,276.192780 1236.000000,267.885559 1236.000000,259.592896 
	C1211.923462,254.967010 1191.449951,244.214523 1174.997559,226.393631 
	C1165.646118,216.264328 1159.242065,204.395462 1158.078491,190.417694 
	C1157.025269,177.765060 1156.334839,165.061279 1156.081421,152.368149 
	C1155.742188,135.382034 1155.787231,118.381683 1156.031494,101.392693 
	C1156.212158,88.820839 1156.974121,76.257347 1157.491211,63.340206 
	C1167.304565,63.340206 1177.358643,63.340206 1188.000000,63.340206 
	C1188.000000,65.115875 1188.000000,66.887375 1188.000000,68.658875 
	C1188.000000,103.643898 1187.784546,138.630875 1188.101318,173.613037 
	C1188.236572,188.544434 1193.447388,201.868820 1204.711670,212.093796 
	C1213.934448,220.465591 1225.055420,225.603226 1237.233887,227.870880 
	C1256.140869,231.391434 1274.588135,229.550049 1291.988159,220.959351 
	C1310.107788,212.013306 1320.665283,197.618149 1321.966309,177.142899 
	C1322.834961,163.472321 1323.838013,149.780090 1323.886353,136.094391 
	C1323.967163,113.177460 1323.331421,90.258049 1323.008301,67.339523 
	C1322.994873,66.381355 1323.091309,65.421638 1323.147095,64.240112 
	C1334.721558,64.240112 1345.990234,64.240112 1358.000000,64.240112 
	C1358.000000,65.937401 1358.000000,67.687561 1358.000000,69.437714 
	C1358.000000,103.589767 1358.472168,137.750519 1357.843872,171.891006 
	C1357.378540,197.174118 1348.625977,219.369354 1328.539795,235.866806 
	C1315.594116,246.499496 1300.368530,252.489136 1284.108521,256.004456 
	C1279.195679,257.066589 1274.278564,258.109283 1269.122314,259.212494 
	C1269.122314,283.302063 1269.122314,307.261444 1269.122314,331.609802 
	C1258.132202,331.609802 1247.410034,331.609802 1236.000000,331.609802 
	C1236.000000,316.337402 1236.000000,300.918701 1236.000000,285.000000 
z"/>
<path fill="#231F20" opacity="1.000000" stroke="none" 
	d="
M1433.004883,189.038849 
	C1421.157715,182.692612 1409.415161,176.654663 1400.462036,166.847748 
	C1392.941162,158.609726 1387.708374,149.235931 1386.889648,137.540176 
	C1385.324585,115.183006 1392.413696,96.030876 1408.167847,80.575783 
	C1418.829590,70.116417 1432.216675,64.112144 1447.250000,61.937424 
	C1461.573975,59.865288 1475.630493,60.716419 1489.365356,65.066689 
	C1500.278809,68.523331 1510.602661,73.452484 1519.353027,80.971718 
	C1525.664062,86.395020 1531.476807,92.398155 1538.159546,98.759239 
	C1529.026978,106.235779 1520.541748,113.182304 1511.844727,120.302277 
	C1505.822510,108.609482 1497.195679,99.688339 1485.552368,94.309906 
	C1464.979980,84.806679 1442.001709,88.000847 1427.222900,103.443550 
	C1416.407715,114.744362 1413.506348,130.428772 1420.208008,141.297256 
	C1424.967163,149.015701 1431.626099,155.241486 1439.851318,159.306381 
	C1459.421265,168.977844 1479.199463,178.231171 1498.708862,188.021179 
	C1510.430664,193.903198 1521.665649,200.738297 1530.803833,210.355728 
	C1541.064453,221.154724 1547.078857,233.739273 1547.064941,249.055054 
	C1547.040161,276.232117 1536.873901,298.822052 1516.656982,316.696442 
	C1505.628662,326.446808 1492.316162,332.492218 1477.867798,334.814667 
	C1457.260132,338.127167 1436.907959,336.602234 1417.917114,326.984833 
	C1394.434204,315.092590 1379.674194,295.903748 1372.454224,270.796875 
	C1372.177368,269.834381 1373.659058,267.488678 1374.745605,267.150208 
	C1383.603271,264.391327 1392.562012,261.957184 1400.775391,259.626953 
	C1405.396240,267.438477 1409.713135,275.490692 1414.743652,283.069122 
	C1422.930298,295.401733 1435.012207,302.735077 1449.111572,305.815735 
	C1474.602051,311.385406 1501.274170,300.204437 1513.570190,276.464996 
	C1522.242554,259.721405 1518.694458,243.333481 1505.598145,229.115784 
	C1494.100586,216.633759 1479.100342,209.742813 1463.995361,202.992294 
	C1453.763184,198.419479 1443.591919,193.710419 1433.004883,189.038849 
z"/>
<path fill="#231F20" opacity="1.000000" stroke="none" 
	d="
M985.276306,170.774780 
	C977.757263,164.013092 971.901245,156.440781 969.078552,147.025543 
	C965.154358,133.935928 967.060852,121.053322 971.263977,108.321182 
	C977.151917,90.485619 988.651184,77.333992 1005.258728,69.064415 
	C1020.613770,61.418446 1036.979126,59.700016 1054.142822,61.773663 
	C1071.039551,63.815063 1085.808838,70.498978 1099.195923,80.178802 
	C1106.353027,85.353951 1112.052856,92.544754 1118.636841,99.049713 
	C1109.604248,106.368141 1101.208496,113.170547 1092.495605,120.229912 
	C1085.099121,105.973488 1074.081299,96.142342 1059.053345,91.655800 
	C1039.489746,85.815208 1021.503723,88.875725 1007.296570,104.422043 
	C998.792603,113.727692 994.284119,124.910629 999.097900,137.663422 
	C1002.686462,147.170364 1010.061951,153.754333 1018.849976,158.238449 
	C1040.741089,169.408447 1062.996704,179.865005 1084.875000,191.059326 
	C1100.582153,199.096100 1114.125366,209.887146 1122.400269,225.955994 
	C1128.589478,237.974716 1129.365967,250.928360 1126.896118,263.991608 
	C1124.467773,276.835571 1120.022949,289.012787 1112.568115,299.891754 
	C1100.302734,317.790710 1083.304077,329.172607 1062.356812,333.841614 
	C1039.646484,338.903503 1017.338745,336.974243 996.462830,325.792053 
	C982.118103,318.108307 970.448242,307.385559 962.652222,293.009460 
	C959.098022,286.455536 956.834412,279.213562 953.699036,272.415802 
	C952.114441,268.980286 953.416687,267.852997 956.530579,266.953461 
	C965.131958,264.468506 973.672974,261.774536 982.509399,259.080475 
	C985.952393,270.357117 991.767883,280.614075 999.907593,289.175385 
	C1008.024170,297.712463 1018.147217,303.612793 1029.846558,305.931641 
	C1046.871582,309.306091 1062.644165,305.888214 1076.940063,295.975647 
	C1089.573120,287.216064 1097.685425,275.379578 1098.802368,259.948151 
	C1099.491943,250.419846 1095.850342,241.560028 1090.212891,233.722260 
	C1083.199463,223.971405 1073.701538,217.238632 1063.087524,212.087891 
	C1044.205200,202.924683 1025.027100,194.357864 1006.300598,184.892685 
	C998.925598,181.165009 992.430054,175.697220 985.276306,170.774780 
z"/>
<path fill="#231F20" opacity="1.000000" stroke="none" 
	d="
M1861.333740,142.259277 
	C1877.713379,133.961487 1894.950317,131.636490 1912.522583,133.158386 
	C1931.310181,134.785553 1948.399780,141.419495 1961.737549,155.337769 
	C1972.014038,166.061554 1978.227661,179.019669 1979.948853,193.877319 
	C1980.610474,199.588303 1980.938843,205.368469 1980.955811,211.118469 
	C1981.049683,242.949921 1981.000732,274.781799 1981.000732,306.613525 
	C1981.000732,308.245850 1981.000854,309.878143 1981.000854,311.753174 
	C1971.606323,311.753174 1962.537598,311.753174 1953.000000,311.753174 
	C1953.000000,309.870605 1953.000000,308.089264 1953.000000,306.307892 
	C1953.000000,273.809540 1952.586548,241.303162 1953.215698,208.816986 
	C1953.448242,196.811005 1948.719360,187.271500 1941.880859,178.673096 
	C1931.915649,166.143280 1918.057861,160.071960 1902.182983,160.159058 
	C1887.843506,160.237747 1874.710205,165.179962 1864.414673,175.350998 
	C1857.774658,181.910934 1853.817627,190.073151 1853.894531,200.112915 
	C1854.168213,235.775681 1854.001343,271.441833 1854.001343,307.106689 
	C1854.001343,308.906372 1854.001343,310.706085 1854.001343,312.750885 
	C1843.273071,312.750885 1832.866089,312.750885 1821.876587,312.750885 
	C1822.260010,308.594818 1822.940308,304.585022 1822.951050,300.573456 
	C1823.038330,268.075317 1823.305176,235.573135 1822.908569,203.079605 
	C1822.558960,174.431198 1836.240112,155.085953 1861.333740,142.259277 
z"/>
<path fill="#231F20" opacity="1.000000" stroke="none" 
	d="
M1761.836548,154.964386 
	C1758.891846,162.019531 1756.073242,169.130585 1752.978760,176.119385 
	C1743.250854,198.089676 1733.470459,220.037079 1723.611206,241.948761 
	C1715.854614,259.187592 1707.919189,276.345886 1700.128784,293.569641 
	C1696.956909,300.582245 1693.958984,307.673431 1690.764282,314.998840 
	C1681.277832,314.998840 1671.811890,315.073578 1662.350586,314.896271 
	C1661.270874,314.876007 1659.703613,313.677368 1659.228271,312.631561 
	C1650.080566,292.507355 1641.115112,272.300476 1632.004395,252.159348 
	C1620.395020,226.493851 1608.677368,200.877304 1597.034912,175.226685 
	C1594.060547,168.673691 1591.194214,162.071701 1588.060669,155.001205 
	C1598.211914,155.001205 1607.942261,154.911331 1617.666504,155.115707 
	C1618.873169,155.141052 1620.605591,156.467834 1621.151489,157.633240 
	C1628.896851,174.166687 1636.429932,190.799347 1644.122925,207.357559 
	C1647.578735,214.795746 1651.374146,222.075958 1654.841309,229.509140 
	C1661.749390,244.319565 1668.537231,259.186127 1675.821045,274.998047 
	C1677.450439,271.599487 1678.772461,269.019562 1679.943115,266.372589 
	C1690.693848,242.062302 1701.372925,217.720291 1712.170410,193.430954 
	C1717.115356,182.307343 1722.293457,171.287537 1727.326294,160.202774 
	C1728.050781,158.607300 1728.553345,156.911118 1729.727173,155.020996 
	C1730.640503,154.685394 1730.865967,154.467072 1730.972046,154.125519 
	C1740.682739,154.068115 1750.393555,154.010681 1760.635986,154.232620 
	C1761.338135,154.740189 1761.561157,154.890991 1761.836548,154.964386 
z"/>
<path fill="#231F20" opacity="1.000000" stroke="none" 
	d="
M1805.000000,293.999847 
	C1805.000000,301.141968 1805.000000,307.784119 1805.000000,314.712524 
	C1793.379517,314.712524 1781.978149,314.712524 1770.287231,314.712524 
	C1770.287231,261.364502 1770.287231,207.975861 1770.287231,154.293137 
	C1781.630737,154.293137 1793.030884,154.293137 1805.000000,154.293137 
	C1805.000000,200.668655 1805.000000,247.084274 1805.000000,293.999847 
z"/>
<path fill="#231F20" opacity="1.000000" stroke="none" 
	d="
M1807.001709,107.054153 
	C1805.593384,116.442917 1802.213135,123.536949 1792.373657,126.296242 
	C1782.722656,129.002655 1771.261108,123.531143 1769.159668,111.767334 
	C1767.352417,101.650497 1770.905396,93.072136 1780.646973,88.847122 
	C1791.315796,84.220055 1804.566040,91.367004 1806.024414,102.901993 
	C1806.183960,104.163597 1806.666260,105.384392 1807.001709,107.054153 
z"/>
<path fill="#050101" opacity="1.000000" stroke="none" 
	d="
M539.068848,129.437485 
	C539.297546,130.505371 539.471558,131.980881 539.410767,133.700439 
	C539.122009,132.578033 539.068054,131.211578 539.068848,129.437485 
z"/>
<path fill="#050101" opacity="1.000000" stroke="none" 
	d="
M539.713867,103.971222 
	C539.879517,104.204346 539.736084,104.486320 539.333313,104.855232 
	C539.233765,104.660004 539.344055,104.352638 539.713867,103.971222 
z"/>
<path fill="#010101" opacity="1.000000" stroke="none" 
	d="
M1730.701538,154.101715 
	C1730.865967,154.467072 1730.640503,154.685394 1730.068359,154.870972 
	C1730.037720,154.666946 1730.234375,154.372421 1730.701538,154.101715 
z"/>
<path fill="#010101" opacity="1.000000" stroke="none" 
	d="
M1761.882202,154.704620 
	C1761.561157,154.890991 1761.338135,154.740189 1761.099609,154.318756 
	C1761.330322,154.231964 1761.629028,154.338394 1761.882202,154.704620 
z"/>
<path fill="#FFFFFF" opacity="1.000000" stroke="none" 
	d="
M643.248596,168.253876 
	C634.530579,180.161163 624.039368,188.162949 608.811829,188.024155 
	C596.030151,187.907654 583.246521,188.000198 569.733276,188.000198 
	C569.733276,156.986053 569.733276,126.324188 569.733276,95.000679 
	C577.058838,95.000679 584.975708,95.028915 592.892212,94.993706 
	C603.337158,94.947250 613.518860,95.232094 623.749023,98.796219 
	C643.815063,105.787102 657.299377,125.292915 651.850891,147.203003 
	C650.067566,154.374023 646.332520,161.059692 643.248596,168.253876 
z"/>
<path fill="#FFFFFF" opacity="1.000000" stroke="none" 
	d="
M396.005371,231.000488 
	C379.110687,231.000488 362.714874,231.000488 345.126617,231.000488 
	C361.372192,194.943939 376.951843,160.365448 392.949463,124.859238 
	C408.576843,160.544769 423.703491,195.086914 439.430725,231.000473 
	C424.547028,231.000473 410.525604,231.000473 396.005371,231.000488 
z"/>
</svg>